<svg id="Layer_1" data-name="Layer 1" xmlns="http://www.w3.org/2000/svg" viewBox="0 0 869.77 187.72"><defs><style>.cls-1{fill:none;}.cls-2{fill:#8bb7f0;}.cls-3{fill:#4e7ab5;}.cls-11,.cls-4,.cls-7{fill:#fff;}.cls-5{fill:#5e9c76;}.cls-6{fill:#bae0bd;}.cls-7{font-size:120px;}.cls-11,.cls-7{font-family:Montserrat-SemiBold, Montserrat;font-weight:600;}.cls-8{letter-spacing:0em;}.cls-9{letter-spacing:0em;}.cls-10{letter-spacing:-0.01em;}.cls-11{font-size:37.14px;}.cls-12{letter-spacing:0.02em;}.cls-13{letter-spacing:-0.01em;}.cls-14{letter-spacing:-0.01em;}</style></defs><path class="cls-1" d="M52.42,341.72V154H240.13V341.72Z" transform="translate(-52.42 -154)"/><path class="cls-2" d="M148.86,335.85c-49.75,0-90.34-39.18-90.58-87.52a88.12,88.12,0,0,1,88-88.46h.46c48.34.23,87.53,40.83,87.53,90.57v67.34a17.83,17.83,0,0,1-17.83,17.84H148.86Z" transform="translate(-52.42 -154)"/><path class="cls-3" d="M146.28,161h.46c47.64.23,86.36,40.36,86.36,89.4v67.34a16.72,16.72,0,0,1-16.66,16.66H148.86c-49.05.24-89.17-38.48-89.4-86.11A86.93,86.93,0,0,1,146.28,161m0-2.35a89.23,89.23,0,0,0-89.17,89.64c.23,49.51,42.24,88.7,91.75,88.7H216.2a18.93,18.93,0,0,0,19-19V250.44c.23-49.51-39-91.51-88.47-91.75Z" transform="translate(-52.42 -154)"/><path class="cls-4" d="M146.28,321.77a73.91,73.91,0,1,1,73.91-73.91,73.9,73.9,0,0,1-73.91,73.91Z" transform="translate(-52.42 -154)"/><path class="cls-3" d="M146.28,175.12a72.74,72.74,0,1,1-72.75,72.74,72.8,72.8,0,0,1,72.75-72.74m0-2.35a75.09,75.09,0,1,0,75.08,75.09,75,75,0,0,0-75.08-75.09Z" transform="translate(-52.42 -154)"/><path class="cls-5" d="M118.12,278.36a2.13,2.13,0,0,1-1.65-.7,2.29,2.29,0,0,1,0-3.29l14.08-14.07a2.32,2.32,0,0,1,3.29,3.28l-14.08,14.08A2.13,2.13,0,0,1,118.12,278.36Zm56.31,0a2.13,2.13,0,0,1-1.64-.7L144.63,249.5a2.32,2.32,0,0,1,3.29-3.28l28.16,28.15a2.29,2.29,0,0,1,0,3.29,2.13,2.13,0,0,1-1.65.7Zm-14.08-42.23a2.13,2.13,0,0,1-1.64-.71,2.26,2.26,0,0,1,0-3.28l14.08-14.08a2.32,2.32,0,1,1,3.29,3.28L162,235.42a2.14,2.14,0,0,1-1.65.71Z" transform="translate(-52.42 -154)"/><path class="cls-5" d="M146.28,250.21a2.14,2.14,0,0,1-1.65-.71l-28.16-28.16a2.32,2.32,0,1,1,3.29-3.28l28.16,28.16a2.26,2.26,0,0,1,0,3.28,2.13,2.13,0,0,1-1.64.71Z" transform="translate(-52.42 -154)"/><path class="cls-6" d="M146.28,270.15a22.29,22.29,0,1,1,22.29-22.29A22.44,22.44,0,0,1,146.28,270.15Z" transform="translate(-52.42 -154)"/><path class="cls-5" d="M146.28,226.74a21.12,21.12,0,1,1-21.12,21.12,21,21,0,0,1,21.12-21.12m0-2.35a23.47,23.47,0,1,0,23.46,23.47A23.54,23.54,0,0,0,146.28,224.39Z" transform="translate(-52.42 -154)"/><path class="cls-5" d="M146.28,226.74a2.22,2.22,0,0,1-2.35-2.35V205.62a2.35,2.35,0,0,1,4.69,0v18.77A2.22,2.22,0,0,1,146.28,226.74Z" transform="translate(-52.42 -154)"/><path class="cls-6" d="M146.28,256.07a8.21,8.21,0,1,1,8.21-8.21A8.32,8.32,0,0,1,146.28,256.07Z" transform="translate(-52.42 -154)"/><path class="cls-5" d="M146.28,240.82a7,7,0,1,1-7,7,6.91,6.91,0,0,1,7-7m0-2.35a9.39,9.39,0,1,0,9.38,9.39A9.42,9.42,0,0,0,146.28,238.47Z" transform="translate(-52.42 -154)"/><path class="cls-6" d="M146.28,213.84a8.22,8.22,0,1,1,8.21-8.22A8.32,8.32,0,0,1,146.28,213.84Z" transform="translate(-52.42 -154)"/><path class="cls-5" d="M146.28,198.58a7,7,0,1,1-7,7,6.91,6.91,0,0,1,7-7m0-2.34a9.39,9.39,0,1,0,9.38,9.38,9.41,9.41,0,0,0-9.38-9.38Zm0,96.2a2.22,2.22,0,0,1-2.35-2.34V271.32a2.35,2.35,0,0,1,4.69,0V290.1A2.21,2.21,0,0,1,146.28,292.44Zm42.23-42.23H169.74a2.35,2.35,0,0,1,0-4.7h18.77a2.35,2.35,0,0,1,0,4.7Zm-65.7,0H104a2.35,2.35,0,0,1,0-4.7h18.77a2.35,2.35,0,0,1,0,4.7Z" transform="translate(-52.42 -154)"/><path class="cls-6" d="M146.28,298.31a8.22,8.22,0,1,1,8.21-8.21A8.32,8.32,0,0,1,146.28,298.31Z" transform="translate(-52.42 -154)"/><path class="cls-5" d="M146.28,283.06a7,7,0,1,1-7,7,6.91,6.91,0,0,1,7-7m0-2.35a9.39,9.39,0,1,0,9.38,9.39,9.41,9.41,0,0,0-9.38-9.39Z" transform="translate(-52.42 -154)"/><path class="cls-6" d="M188.51,256.07a8.21,8.21,0,1,1,8.21-8.21,8.31,8.31,0,0,1-8.21,8.21Z" transform="translate(-52.42 -154)"/><path class="cls-5" d="M188.51,240.82a7,7,0,1,1-7,7,6.91,6.91,0,0,1,7-7m0-2.35a9.39,9.39,0,1,0,9.39,9.39,9.41,9.41,0,0,0-9.39-9.39Z" transform="translate(-52.42 -154)"/><path class="cls-6" d="M104,256.07a8.21,8.21,0,1,1,8.21-8.21A8.31,8.31,0,0,1,104,256.07Z" transform="translate(-52.42 -154)"/><path class="cls-5" d="M104,240.82a7,7,0,1,1-7,7,6.91,6.91,0,0,1,7-7m0-2.35a9.39,9.39,0,1,0,9.38,9.39,9.42,9.42,0,0,0-9.38-9.39Z" transform="translate(-52.42 -154)"/><path class="cls-6" d="M118.12,213.84A5.87,5.87,0,1,0,124,219.7a5.86,5.86,0,0,0-5.86-5.86Z" transform="translate(-52.42 -154)"/><path class="cls-5" d="M118.12,215a4.69,4.69,0,1,1-4.7,4.69,4.7,4.7,0,0,1,4.7-4.69m0-2.35a7,7,0,1,0,7,7A6.91,6.91,0,0,0,118.12,212.66Z" transform="translate(-52.42 -154)"/><path class="cls-6" d="M174.43,213.84a5.87,5.87,0,1,0,5.87,5.86,5.86,5.86,0,0,0-5.87-5.86Z" transform="translate(-52.42 -154)"/><path class="cls-5" d="M174.43,215a4.69,4.69,0,1,1-4.69,4.69,4.71,4.71,0,0,1,4.69-4.69m0-2.35a7,7,0,1,0,7,7A6.91,6.91,0,0,0,174.43,212.66Z" transform="translate(-52.42 -154)"/><path class="cls-6" d="M174.43,270.15A5.87,5.87,0,1,0,180.3,276,5.86,5.86,0,0,0,174.43,270.15Z" transform="translate(-52.42 -154)"/><path class="cls-5" d="M174.43,271.32a4.7,4.7,0,1,1-4.69,4.7,4.72,4.72,0,0,1,4.69-4.7m0-2.34a7,7,0,1,0,7,7A6.91,6.91,0,0,0,174.43,269Z" transform="translate(-52.42 -154)"/><path class="cls-6" d="M118.12,270.15A5.87,5.87,0,1,0,124,276a5.87,5.87,0,0,0-5.86-5.87Z" transform="translate(-52.42 -154)"/><path class="cls-5" d="M118.12,271.32a4.7,4.7,0,1,1-4.7,4.7,4.71,4.71,0,0,1,4.7-4.7m0-2.34a7,7,0,1,0,7,7A6.91,6.91,0,0,0,118.12,269Z" transform="translate(-52.42 -154)"/><text class="cls-7" transform="translate(206.58 124.43) scale(1.05 1)">Si<tspan class="cls-8" x="110.16" y="0">c</tspan><tspan class="cls-9" x="179.28" y="0">kO</tspan><tspan class="cls-10" x="356.64" y="0">r</tspan><tspan x="405.84" y="0">Not</tspan></text><text class="cls-11" transform="translate(423.05 172.86) scale(1.05 1)">#wi<tspan class="cls-12" x="71.26" y="0">r</tspan><tspan class="cls-13" x="87.42" y="0">v</tspan><tspan class="cls-14" x="108.62" y="0">s</tspan><tspan x="127.38" y="0">virus</tspan></text><rect class="cls-4" x="206.58" y="152.87" width="208" height="18.26"/><rect class="cls-4" x="662.15" y="152.87" width="207.62" height="18.26"/></svg>